<svg id="Layer_1" data-name="Layer 1" xmlns="http://www.w3.org/2000/svg" viewBox="0 0 286.93 105.6"><defs><style>.cls-1{fill:red;}.cls-2{fill:#11790a;}</style></defs><title>MARSLA_RESTAURANT-02</title><path class="cls-1" d="M52,7.39A43.48,43.48,0,1,0,95.47,50.87,43.48,43.48,0,0,0,52,7.39ZM41.72,69.05a37.75,37.75,0,0,1-8.63-6.79c-2.53-2.56-4.91-5.25-7.57-8.11,0,2.22,1.29,3.7,2.23,5.25A41.34,41.34,0,0,0,31,63.91c1.23,1.48,2.59,2.84,4.06,4.43-11.4-1.47-21.53-13.72-21-24.81.1-2,1-2,2.48-2,9.8-.13,17.21,5.26,20.39,14.88.26.77.09,1.74.93,2.37,1.14-6.65.72-8.27-3.61-13.19a4.28,4.28,0,0,1-1.15-3.28c.26-4.69.49-9.38.75-14.06,0-1,.07-2.27,1.38-2.15s1.07,1.44,1.07,2.39c0,4.15,0,8.3,0,12.45,0,1-.41,2.56,1.26,2.44,1.29-.09,1-1.51,1-2.42,0-4.15,0-8.31,0-12.46,0-1-.13-2.54,1.42-2.43,1.26.09,1,1.47,1,2.42,0,4.15,0,8.31,0,12.46,0,1-.27,2.52,1.35,2.42,1.27-.08,1.11-1.43,1.11-2.37,0-4.16,0-8.31,0-12.47,0-.9-.42-2.32.9-2.45s1.21,1.25,1.28,2.21c.33,4.68.67,9.36,1,14,.13,2-1.12,3.25-2.48,4.39a7.08,7.08,0,0,0-2.6,6C41.8,58,41.72,63.24,41.72,69.05Zm20.2,5.66a21.84,21.84,0,0,1-2.07,1c-1.38.54-3,2.17-4.07,1.4-1.46-1-.83-3.25-.67-5a24.85,24.85,0,0,1,3-10c1.69-3,3.75-4.95,7.64-5.13C71.48,56.8,76.49,51,76.6,45.39s-4-8.56-9.42-6.71a12.34,12.34,0,0,0-8.31,12.09,12.73,12.73,0,0,1-2.66,8.73C50,68.24,47.88,78.34,47,88.79c-.11,1.26,0,2.53,0,3.81-2.12-3.27-2.52-6.94-2.93-10.53-1.52-13.46.36-26.19,8.85-37.25,7.64-10,18.21-15.37,30-18.84,1.7-.5,1.86.58,1.94,1.69C86.38,47.78,83.11,63.83,61.92,74.71Zm-.28-26.77c.71-3.58,2.57-6,6.92-7.27C65.64,43.37,63.26,45.35,61.64,47.94Z"/><path class="cls-1" d="M109.34,52.34h-7.09V34.91c0-8,5-12.18,12.39-12.18,5.17,0,9.25,2.71,9.25,7.34h.42c0-4.63,4.17-7.34,9.47-7.34,7.13,0,12.17,4.21,12.17,12.18V52.34h-7.09V35a5.61,5.61,0,0,0-11.21,0V52.34h-7.09V35a5.61,5.61,0,0,0-11.22,0Z"/><path class="cls-1" d="M172.06,52.34H165V45.67h-9.55v6.67h-7.09V41.91c0-12.21,6.72-18.76,19.19-18.76h4.54ZM165,39.2V29.82h-.5c-4.79,0-8.17,3.63-8.88,9.38Z"/><path class="cls-1" d="M186.53,45.71V39.2h.5c3.34,0,5.72-2,5.72-4.92s-2.26-4.88-5.59-4.88-5.59,2-5.59,4.88V52.34h-7.09V34.28c0-6.92,5.09-11.55,12.68-11.55s12.68,4.63,12.68,10.93c0,7.05-5.51,8.88-7.43,8.88V43a6.68,6.68,0,0,1,5,2.92l4.13,6.46h-8.14l-3.12-4.84A4,4,0,0,0,187,45.71Z"/><path class="cls-1" d="M214.27,22.73a26.55,26.55,0,0,1,10.46,1.63v7.09a25.29,25.29,0,0,0-10.3-1.92c-3.79,0-5.08,1.08-5.08,2.25,0,5,16.64-.54,16.64,11.51,0,6.55-5.22,9.51-12,9.51a26.86,26.86,0,0,1-10.47-1.63V44a24.47,24.47,0,0,0,10.3,2c3.79,0,5.13-1.12,5.13-2.21,0-5-16.68.46-16.68-11.59C202.26,25.65,207.47,22.73,214.27,22.73Z"/><path class="cls-1" d="M235.33,45.88h14v6.46h-15.3a5.51,5.51,0,0,1-5.84-5.84V23.15h7.09Z"/><path class="cls-1" d="M275.45,52.34h-7.09V45.67h-9.55v6.67h-7.09V41.91c0-12.21,6.71-18.76,19.18-18.76h4.55ZM268.36,39.2V29.82h-.5c-4.8,0-8.18,3.63-8.89,9.38Z"/><path class="cls-2" d="M109,74.32V70h.33c2.21,0,3.78-1.33,3.78-3.25s-1.49-3.23-3.69-3.23-3.7,1.3-3.7,3.23V78.7H101V66.77c0-4.58,3.36-7.64,8.38-7.64s8.37,3.06,8.37,7.22c0,4.66-3.63,5.87-4.9,5.87v.28a4.36,4.36,0,0,1,3.3,1.93l2.73,4.27h-5.37l-2.07-3.2a2.64,2.64,0,0,0-2.15-1.18Z"/><path class="cls-2" d="M132.66,71.18h-8.52v3.25h10.12V78.7H123.32a3.65,3.65,0,0,1-3.86-3.86v-3a2.51,2.51,0,0,1,2.67-2.65h.17v-.27h-.17a2.52,2.52,0,0,1-2.67-2.65v-3a3.64,3.64,0,0,1,3.86-3.86h10.94v4.27H124.14v3.25h8.52Z"/><path class="cls-2" d="M143.46,59.13a17.63,17.63,0,0,1,6.92,1.08v4.68a16.72,16.72,0,0,0-6.81-1.27c-2.5,0-3.36.72-3.36,1.49,0,3.31,11-.36,11,7.61,0,4.32-3.45,6.28-7.94,6.28a17.84,17.84,0,0,1-6.92-1.07V73.21a16.16,16.16,0,0,0,6.81,1.3c2.51,0,3.39-.74,3.39-1.46,0-3.34-11,.3-11-7.66C135.53,61.06,139,59.13,143.46,59.13Z"/><path class="cls-2" d="M163.25,63.68v15h-4.68v-15h-6.42V59.41h17.52v4.27Z"/><path class="cls-2" d="M184.86,78.7h-4.68V74.29h-6.31V78.7h-4.69V71.81c0-8.08,4.44-12.4,12.68-12.4h3ZM180.18,70v-6.2h-.33c-3.17,0-5.4,2.39-5.87,6.2Z"/><path class="cls-2" d="M194.82,74.56a3.5,3.5,0,0,0,3.72-3.69V59.41h4.68V70.93c0,5.26-3.33,8-8.32,8s-8.46-2.78-8.46-8V59.41h4.68V70.87A3.47,3.47,0,0,0,194.82,74.56Z"/><path class="cls-2" d="M212.79,74.32V70h.33c2.2,0,3.77-1.33,3.77-3.25s-1.49-3.23-3.69-3.23-3.69,1.3-3.69,3.23V78.7h-4.69V66.77c0-4.58,3.36-7.64,8.38-7.64s8.38,3.06,8.38,7.22c0,4.66-3.64,5.87-4.91,5.87v.28A4.4,4.4,0,0,1,220,74.43l2.73,4.27h-5.38l-2.06-3.2a2.66,2.66,0,0,0-2.15-1.18Z"/><path class="cls-2" d="M239.69,78.7H235V74.29h-6.31V78.7H224V71.81c0-8.08,4.43-12.4,12.67-12.4h3ZM235,70v-6.2h-.33c-3.17,0-5.4,2.39-5.87,6.2Z"/><path class="cls-2" d="M246,78.7h-4.69V67.18c0-5.26,3.34-8.05,8.46-8.05S258,61.92,258,67.18V78.7h-4.68V67.23a3.71,3.71,0,0,0-7.41,0Z"/><path class="cls-2" d="M270.26,63.68v15h-4.69v-15h-6.42V59.41h17.53v4.27Z"/></svg>