<svg id="Layer_1" data-name="Layer 1" xmlns="http://www.w3.org/2000/svg" viewBox="0 0 216.45 184.53"><defs><style>.cls-1{fill:red;}.cls-2{fill:#11790a;}</style></defs><title>marsla-logo-columnn</title><path class="cls-1" d="M107.33,16.7A38.31,38.31,0,1,0,145.64,55,38.31,38.31,0,0,0,107.33,16.7ZM98.28,71a33.36,33.36,0,0,1-7.61-6c-2.23-2.26-4.33-4.63-6.67-7.15,0,2,1.14,3.26,2,4.63a34.8,34.8,0,0,0,2.87,4c1.08,1.3,2.28,2.5,3.58,3.9-10-1.29-19-12.08-18.49-21.86.09-1.74.91-1.74,2.18-1.76,8.64-.12,15.17,4.64,18,13.11.23.68.08,1.54.82,2.09,1-5.86.63-7.29-3.18-11.63a3.82,3.82,0,0,1-1-2.88c.24-4.14.44-8.27.67-12.4,0-.86.06-2,1.22-1.89s.94,1.27.94,2.1c0,3.66,0,7.32,0,11,0,.85-.37,2.25,1.11,2.15,1.13-.08.86-1.33.87-2.13,0-3.66,0-7.32,0-11,0-.91-.11-2.24,1.25-2.14,1.11.08.89,1.29.89,2.13,0,3.66,0,7.32,0,11,0,.9-.24,2.22,1.19,2.13,1.12-.07,1-1.26,1-2.09,0-3.67,0-7.32,0-11,0-.79-.37-2,.79-2.15s1.07,1.1,1.14,1.94c.29,4.12.59,8.25.85,12.38.11,1.74-1,2.86-2.19,3.86a6.23,6.23,0,0,0-2.29,5.32C98.35,61.29,98.28,65.91,98.28,71Zm17.8,5a18.91,18.91,0,0,1-1.82.87c-1.22.48-2.64,1.91-3.6,1.23-1.27-.9-.73-2.86-.58-4.36A21.69,21.69,0,0,1,112.7,65c1.49-2.66,3.3-4.35,6.73-4.52,5.07-.23,9.49-5.33,9.58-10.28s-3.55-7.54-8.29-5.91a10.87,10.87,0,0,0-7.33,10.65,11.26,11.26,0,0,1-2.34,7.7c-5.44,7.69-7.34,16.6-8.14,25.8-.1,1.11,0,2.24,0,3.36-1.86-2.88-2.22-6.11-2.58-9.28-1.33-11.85.32-23.07,7.8-32.82,6.74-8.77,16-13.54,26.42-16.6,1.5-.44,1.64.5,1.72,1.49C137.63,52.29,134.75,66.43,116.08,76Zm-.25-23.59c.63-3.15,2.27-5.29,6.1-6.41C119.36,48.4,117.26,50.14,115.83,52.43Z"/><path class="cls-1" d="M17.61,139.35h-8V119.68c0-9,5.7-13.74,14-13.74,5.83,0,10.44,3.06,10.44,8.28h.47c0-5.22,4.71-8.28,10.69-8.28,8,0,13.74,4.75,13.74,13.74v19.67h-8V119.78c0-4.24-3-6.31-6.35-6.31s-6.31,2.07-6.31,6.31v19.57h-8V119.78c0-4.24-3-6.31-6.35-6.31s-6.31,2.07-6.31,6.31Z"/><path class="cls-1" d="M88.39,139.35h-8v-7.53H69.61v7.53h-8V127.59c0-13.79,7.58-21.18,21.65-21.18h5.13Zm-8-14.82V113.94h-.56c-5.42,0-9.23,4.09-10,10.59Z"/><path class="cls-1" d="M104.72,131.87v-7.34h.57c3.76,0,6.44-2.26,6.44-5.55s-2.54-5.51-6.3-5.51-6.31,2.21-6.31,5.51v20.37h-8V119c0-7.82,5.74-13,14.31-13s14.3,5.22,14.3,12.33c0,8-6.21,10-8.37,10v.47a7.51,7.51,0,0,1,5.64,3.3l4.66,7.29h-9.17L109,133.89a4.55,4.55,0,0,0-3.67-2Z"/><path class="cls-1" d="M136,105.94c5.32,0,8.33.52,11.81,1.83v8a28.85,28.85,0,0,0-11.62-2.16c-4.29,0-5.74,1.22-5.74,2.54,0,5.65,18.77-.61,18.77,13,0,7.39-5.88,10.73-13.55,10.73-5.27,0-8.28-.52-11.81-1.84v-8a27.68,27.68,0,0,0,11.62,2.21c4.28,0,5.79-1.27,5.79-2.49,0-5.7-18.83.51-18.83-13.09C122.46,109.23,128.35,105.94,136,105.94Z"/><path class="cls-1" d="M159.78,132.06h15.86v7.29H158.37a6.23,6.23,0,0,1-6.59-6.59V106.41h8Z"/><path class="cls-1" d="M205.06,139.35h-8v-7.53H186.28v7.53h-8V127.59c0-13.79,7.58-21.18,21.65-21.18h5.13Zm-8-14.82V113.94h-.57c-5.41,0-9.22,4.09-10,10.59Z"/><path class="cls-2" d="M17.21,164.15V159.3h.37c2.49,0,4.26-1.49,4.26-3.67S20.16,152,17.67,152s-4.16,1.46-4.16,3.64V169.1H8.22V155.63c0-5.16,3.79-8.61,9.45-8.61s9.46,3.45,9.46,8.14c0,5.26-4.11,6.63-5.54,6.63v.31a5,5,0,0,1,3.73,2.18l3.08,4.82H22.34L20,165.49a3,3,0,0,0-2.43-1.34Z"/><path class="cls-2" d="M43.93,160.61H34.32v3.67H45.73v4.82H33.38A4.12,4.12,0,0,1,29,164.74v-3.39a2.83,2.83,0,0,1,3-3h.18v-.31h-.18a2.85,2.85,0,0,1-3-3v-3.39a4.11,4.11,0,0,1,4.35-4.35H45.73v4.82H34.32v3.67h9.61Z"/><path class="cls-2" d="M56.12,147a19.87,19.87,0,0,1,7.8,1.21v5.29a18.87,18.87,0,0,0-7.68-1.43c-2.83,0-3.79.8-3.79,1.67,0,3.74,12.41-.4,12.41,8.59,0,4.88-3.89,7.09-9,7.09a19.86,19.86,0,0,1-7.8-1.22v-5.31a18.23,18.23,0,0,0,7.68,1.46c2.83,0,3.82-.84,3.82-1.65,0-3.76-12.44.34-12.44-8.64C47.16,149.19,51.05,147,56.12,147Z"/><path class="cls-2" d="M78.45,152.15V169.1H73.17V152.15H65.92v-4.82H85.7v4.82Z"/><path class="cls-2" d="M102.84,169.1H97.55v-5H90.43v5H85.14v-7.78c0-9.11,5-14,14.31-14h3.39Zm-5.29-9.8v-7h-.37c-3.58,0-6.1,2.71-6.63,7Z"/><path class="cls-2" d="M114.07,164.43a4,4,0,0,0,4.2-4.17V147.33h5.28v13c0,5.94-3.76,9.08-9.39,9.08s-9.55-3.14-9.55-9.08v-13h5.29v12.93A3.92,3.92,0,0,0,114.07,164.43Z"/><path class="cls-2" d="M134.35,164.15V159.3h.37c2.49,0,4.26-1.49,4.26-3.67S137.3,152,134.81,152s-4.16,1.46-4.16,3.64V169.1h-5.29V155.63c0-5.16,3.79-8.61,9.45-8.61s9.46,3.45,9.46,8.14c0,5.26-4.11,6.63-5.54,6.63v.31a5,5,0,0,1,3.73,2.18l3.08,4.82h-6.06l-2.33-3.61a3,3,0,0,0-2.43-1.34Z"/><path class="cls-2" d="M164.7,169.1h-5.28v-5H152.3v5H147v-7.78c0-9.11,5-14,14.3-14h3.39Zm-5.28-9.8v-7H159c-3.57,0-6.09,2.71-6.62,7Z"/><path class="cls-2" d="M171.77,169.1h-5.29v-13c0-5.94,3.76-9.08,9.55-9.08,5.63,0,9.39,3.14,9.39,9.08v13h-5.29V156.16a4.18,4.18,0,0,0-8.36,0Z"/><path class="cls-2" d="M199.2,152.15V169.1h-5.29V152.15h-7.24v-4.82h19.78v4.82Z"/></svg>